<svg xmlns="http://www.w3.org/2000/svg" xmlns:svg="http://www.w3.org/2000/svg" xmlns:xlink="http://www.w3.org/1999/xlink" version="1.0" height="610pt" width="1050pt" viewBox="445 27 1058 616" ><defs><style type="text/css">
            @font-face {
                font-family: 'lt_regular';
                src: url('https://app.creately.com/diagram/assets/fonts/lato/lt-regular-webfont.woff2') format('woff2'),
                    url('https://app.creately.com/diagram/assets/fonts/lato/lt-regular-webfont.woff') format('woff');
                font-weight: normal;
                font-style: normal;
            }
            @font-face {
                font-family: 'noto_regular';
                src: url('https://app.creately.com/diagram/assets/fonts/noto/noto-regular.woff') format('woff'),
                     url('https://app.creately.com/diagram/assets/fonts/noto/noto-regular.woff2') format('woff2');
                font-weight: normal;
                font-style: normal;
            }
        p {
            margin: 0;
        }
        </style></defs><defs><style>
            span{ display: inline-block; }
        </style></defs><g id="GK2oOeAPhzW"><g transform="translate(450 100)"><rect x="0" y="0" width="260" height="540" rx="10" ry="10" fill="rgb(216,230,240)" stroke="#181e3a" stroke-width="2" stroke-linecap="round" stroke-linejoin="round" stroke-dasharray="0 0"/></g></g><g id="LT4Qx2KgwN7"><g transform="translate(760 100)"><rect x="0" y="0" width="740" height="540" rx="10" ry="10" fill="rgb(216,230,240)" stroke="#181e3a" stroke-width="2" stroke-linecap="round" stroke-linejoin="round" stroke-dasharray="0 0"/></g></g><g id="GfwttpnILo8"><g transform="translate(830 150)"><rect x="0" y="0" width="120" height="60" fill="rgb(31,89,134)" stroke="#1f5986" stroke-width="2" stroke-linecap="round" stroke-linejoin="round" stroke-dasharray="0 0"/></g><g transform="translate(847.5, 170.5) rotate(0, 42.5, 9.5)" width="85" height="19"><text text-decoration="none" x="0.5" fill="#ffffff" font-size="10pt" font-family="lt_regular"  y="15">Case&#160;</text><text text-decoration="none" x="31.5" fill="#ffffff" font-size="10pt" font-family="lt_regular"  y="15">Reported</text><text text-decoration="none" x="84.5" fill="#4b4b4b" font-size="10pt" font-family="noto_regular"  y="15"></text></g></g><g id="8ZuOO5XVHEJ"><g transform="translate(1040 150)"><rect x="0" y="0" width="120" height="60" fill="rgb(9,149,206)" stroke="#0995CE" stroke-width="2" stroke-linecap="round" stroke-linejoin="round" stroke-dasharray="0 0"/></g><g transform="translate(1055.5, 152.5) rotate(0, 44.5, 27.5)" width="89" height="55"><text text-decoration="none" x="18" fill="#ffffff" font-size="10pt" font-family="lt_regular"  y="14">First&#160;</text><text text-decoration="none" x="47" fill="#ffffff" font-size="10pt" font-family="lt_regular"  y="14">Line&#160;</text><text text-decoration="none" x="1" fill="#ffffff" font-size="10pt" font-family="lt_regular"  y="32">Management&#160;</text><text text-decoration="none" x="79" fill="#ffffff" font-size="10pt" font-family="lt_regular"  y="32">&#x26;&#160;</text><text text-decoration="none" x="17" fill="#ffffff" font-size="10pt" font-family="lt_regular"  y="51">Diagnosis</text><text text-decoration="none" x="72" fill="#4b4b4b" font-size="10pt" font-family="noto_regular"  y="51"></text></g></g><g id="cBVMHc3h7lL"><g><path d="M 950,180 L 1040,180" fill="none" stroke="#08415F" stroke-width="2" stroke-linecap="round" stroke-linejoin="round" stroke-dasharray="0 0"/><path d="M 1040,180 L 1031.304347826087,174.25 L 1031.304347826087,185.75 Z" fill="rgb(8,65,95)" stroke="#08415F" stroke-width="2" stroke-linecap="round" stroke-linejoin="round"/></g></g><g id="jzygSAmEW1A"><g transform="translate(1240 150)"><path d="M 60,0 L 0,40 L 60,80 L 120,40 L 60,0 Z" fill="rgb(97,215,75)" stroke="#61d74b" stroke-width="2" stroke-linecap="round" stroke-linejoin="round" stroke-dasharray="0 0"/></g><g transform="translate(1270.5, 171.5) rotate(0, 29.5, 18.5)" width="59" height="37"><text text-decoration="none" x="14" fill="#ffffff" font-size="10pt" font-family="lt_regular"  y="14">Case&#160;</text><text text-decoration="none" x="45" fill="#ffffff" font-size="10pt" font-family="lt_regular"  y="14"></text><text text-decoration="none" x="0.5" fill="#ffffff" font-size="10pt" font-family="lt_regular"  y="33">Resolved?</text><text text-decoration="none" x="58.5" fill="#4b4b4b" font-size="10pt" font-family="noto_regular"  y="33"></text></g></g><g id="aMpCmFwGdXc"><g><path d="M 1100,150 L 1100,140 Q 1100,130 1110,130 L 1180,130 Q 1190,130 1190,130 L 1240,130 L 1290,130 Q 1300,130 1300,140 L 1300,150" fill="none" stroke="#08415F" stroke-width="2" stroke-linecap="round" stroke-linejoin="round" stroke-dasharray="0 0"/><path d="M 1300,150 L 1305.75,141.30434782608697 L 1294.25,141.30434782608697 Z" fill="rgb(8,65,95)" stroke="#08415F" stroke-width="2" stroke-linecap="round" stroke-linejoin="round"/></g></g><g id="0cRLobnWnYF"><g transform="translate(1370 320)"><rect x="0" y="0" width="120" height="60" fill="rgb(31,89,134)" stroke="#1f5986" stroke-width="2" stroke-linecap="round" stroke-linejoin="round" stroke-dasharray="0 0"/></g><g transform="translate(1380, 331.5) rotate(0, 50, 18.5)" width="100" height="37"><text text-decoration="none" x="0.5" fill="#ffffff" font-size="10pt" font-family="lt_regular"  y="14">Case&#160;</text><text text-decoration="none" x="31.5" fill="#ffffff" font-size="10pt" font-family="lt_regular"  y="14">Reviewed&#160;</text><text text-decoration="none" x="90.5" fill="#ffffff" font-size="10pt" font-family="lt_regular"  y="14">&#x26;&#160;</text><text text-decoration="none" x="30.5" fill="#ffffff" font-size="10pt" font-family="lt_regular"  y="33">Closed</text><text text-decoration="none" x="69.5" fill="#4b4b4b" font-size="10pt" font-family="noto_regular"  y="33"></text></g></g><g id="bSDHzNxNHUl"><mask id="d8a0e" x="1346" y="176" width="98" height="158" maskUnits="userSpaceOnUse"><rect x="1346" y="176" width="98" height="158" fill="white" /><rect x="1417" y="207.5" width="26" height="25" fill="black" /></mask><g mask="url(#d8a0e)"><path d="M 1360,190 L 1420,190 Q 1430,190 1430,200 L 1430,320" fill="none" stroke="#08415F" stroke-width="2" stroke-linecap="round" stroke-linejoin="round" stroke-dasharray="0 0"/><path d="M 1430,320 L 1435.75,311.30434782608694 L 1424.25,311.30434782608694 Z" fill="rgb(8,65,95)" stroke="#08415F" stroke-width="2" stroke-linecap="round" stroke-linejoin="round"/></g><g transform="translate(1420, 210.5)" width="20" height="19"><text text-decoration="none" x="0" fill="#08415F" font-size="10pt" font-family="lt_regular"  y="15">Yes</text><text text-decoration="none" x="21" fill="#4b4b4b" font-size="10pt" font-family="noto_regular"  y="15"></text></g></g><g id="hJkmlOjIuMy"><g transform="translate(1040 250)"><rect x="0" y="0" width="120" height="60" fill="rgb(9,149,206)" stroke="#0995CE" stroke-width="2" stroke-linecap="round" stroke-linejoin="round" stroke-dasharray="0 0"/></g><g transform="translate(1057, 270.5) rotate(0, 43, 9.5)" width="86" height="19"><text text-decoration="none" x="0.5" fill="#ffffff" font-size="10pt" font-family="lt_regular"  y="15">Case&#160;</text><text text-decoration="none" x="31.5" fill="#ffffff" font-size="10pt" font-family="lt_regular"  y="15">Escalated</text><text text-decoration="none" x="85.5" fill="#4b4b4b" font-size="10pt" font-family="noto_regular"  y="15"></text></g></g><g id="wpiNbI8AoFC"><mask id="5e693" x="1146" y="176" width="108" height="118" maskUnits="userSpaceOnUse"><rect x="1146" y="176" width="108" height="118" fill="white" /><rect x="1188" y="222.5" width="24" height="25" fill="black" /></mask><g mask="url(#5e693)"><path d="M 1240,190 L 1210,190 Q 1200,190 1200,200 L 1200,235 L 1200,270 Q 1200,280 1190,280 L 1160,280" fill="none" stroke="#08415F" stroke-width="2" stroke-linecap="round" stroke-linejoin="round" stroke-dasharray="0 0"/><path d="M 1160,280 L 1168.695652173913,285.75 L 1168.695652173913,274.25 Z" fill="rgb(8,65,95)" stroke="#08415F" stroke-width="2" stroke-linecap="round" stroke-linejoin="round"/></g><g transform="translate(1191, 225.5)" width="18" height="19"><text text-decoration="none" x="0.5" fill="#08415F" font-size="10pt" font-family="lt_regular"  y="15">No</text><text text-decoration="none" x="17.5" fill="#4b4b4b" font-size="10pt" font-family="noto_regular"  y="15"></text></g></g><g id="Z0ZhUbnrRPq"><g transform="translate(1040 360)"><rect x="0" y="0" width="120" height="60" fill="rgb(9,149,206)" stroke="#0995CE" stroke-width="2" stroke-linecap="round" stroke-linejoin="round" stroke-dasharray="0 0"/></g><g transform="translate(1057.5, 371.5) rotate(0, 42.5, 18.5)" width="85" height="37"><text text-decoration="none" x="4" fill="#ffffff" font-size="10pt" font-family="lt_regular"  y="14">Second/Third&#160;</text><text text-decoration="none" x="1" fill="#ffffff" font-size="10pt" font-family="lt_regular"  y="33">Line&#160;</text><text text-decoration="none" x="28" fill="#ffffff" font-size="10pt" font-family="lt_regular"  y="33">DIagnosis</text><text text-decoration="none" x="84" fill="#4b4b4b" font-size="10pt" font-family="noto_regular"  y="33"></text></g></g><g id="h4qHhXdFNQw"><g><path d="M 1100,310 L 1100,360" fill="none" stroke="#7E7E7E" stroke-width="2" stroke-linecap="round" stroke-linejoin="round"/><path d="M 1100,360 L 1105.75,351.30434782608694 L 1094.25,351.30434782608694 Z" fill="rgb(126,126,126)" stroke="#7E7E7E" stroke-width="2" stroke-linecap="round" stroke-linejoin="round"/></g></g><g id="xI5gUGq3hkT"><g transform="translate(1040 520)"><rect x="0" y="0" width="120" height="60" fill="rgb(9,149,206)" stroke="#0995CE" stroke-width="2" stroke-linecap="round" stroke-linejoin="round" stroke-dasharray="0 0"/></g><g transform="translate(1060, 540.5) rotate(0, 40, 9.5)" width="80" height="19"><text text-decoration="none" x="0" fill="#ffffff" font-size="10pt" font-family="lt_regular"  y="15">Engineer&#160;</text><text text-decoration="none" x="54" fill="#ffffff" font-size="10pt" font-family="lt_regular"  y="15">Visit</text><text text-decoration="none" x="80" fill="#4b4b4b" font-size="10pt" font-family="noto_regular"  y="15"></text></g></g><g id="jKEGYSnseze"><g><path d="M 1100,420 L 1100,520" fill="none" stroke="#7E7E7E" stroke-width="2" stroke-linecap="round" stroke-linejoin="round"/><path d="M 1100,520 L 1105.75,511.30434782608694 L 1094.25,511.30434782608694 Z" fill="rgb(126,126,126)" stroke="#7E7E7E" stroke-width="2" stroke-linecap="round" stroke-linejoin="round"/></g></g><g id="pt7lmO7pxI6"><g><path d="M 1040,280 L 1030,280 Q 1020,280 1020,290 L 1020,330 Q 1020,340 1020,340 L 1020,440 L 1020,540 Q 1020,550 1030,550 L 1040,550" fill="none" stroke="#08415F" stroke-width="2" stroke-linecap="round" stroke-linejoin="round" stroke-dasharray="0 0"/><path d="M 1040,550 L 1031.304347826087,544.25 L 1031.304347826087,555.75 Z" fill="rgb(8,65,95)" stroke="#08415F" stroke-width="2" stroke-linecap="round" stroke-linejoin="round"/></g></g><g id="TRNQGPjZ5oh"><g><path d="M 1160,550 L 1290,550 Q 1300,550 1300,540 L 1300,230" fill="none" stroke="#08415F" stroke-width="2" stroke-linecap="round" stroke-linejoin="round" stroke-dasharray="0 0"/><path d="M 1300,230 L 1294.25,238.69565217391303 L 1305.75,238.69565217391303 Z" fill="rgb(8,65,95)" stroke="#08415F" stroke-width="2" stroke-linecap="round" stroke-linejoin="round"/></g></g><g id="8PnaN5GFUQy"><g transform="translate(830 460)"><rect x="0" y="0" width="120" height="60" fill="rgb(9,149,206)" stroke="#0995CE" stroke-width="2" stroke-linecap="round" stroke-linejoin="round" stroke-dasharray="0 0"/></g><g transform="translate(857.5, 471.5) rotate(0, 32.5, 18.5)" width="65" height="37"><text text-decoration="none" x="16" fill="#ffffff" font-size="10pt" font-family="lt_regular"  y="14">24/7&#160;</text><text text-decoration="none" x="49" fill="#ffffff" font-size="10pt" font-family="lt_regular"  y="14"></text><text text-decoration="none" x="1" fill="#ffffff" font-size="10pt" font-family="lt_regular"  y="33">Monitoring</text><text text-decoration="none" x="64" fill="#4b4b4b" font-size="10pt" font-family="noto_regular"  y="33"></text></g></g><g id="L2mP0xNNvSW"><g transform="translate(830 310)"><rect x="0" y="0" width="120" height="30" fill="rgb(192,35,44)" stroke="#C0232C" stroke-width="2" stroke-linecap="round" stroke-linejoin="round" stroke-dasharray="0 0"/></g><g transform="translate(872.5, 315.5) rotate(0, 17.5, 9.5)" width="35" height="19"><text text-decoration="none" x="0" fill="#ffffff" font-size="10pt" font-family="lt_regular"  y="15">Alerts</text><text text-decoration="none" x="35" fill="#4b4b4b" font-size="10pt" font-family="noto_regular"  y="15"></text></g></g><g id="sHbLo9B4O75"><g><path d="M 890,460 L 890,340" fill="none" stroke="#08415F" stroke-width="2" stroke-linecap="round" stroke-linejoin="round" stroke-dasharray="0 0"/><path d="M 890,340 L 884.25,348.69565217391306 L 895.75,348.69565217391306 Z" fill="rgb(8,65,95)" stroke="#08415F" stroke-width="2" stroke-linecap="round" stroke-linejoin="round"/></g></g><g id="5dLggF5vlY8"><g><path d="M 890,310 L 890,210" fill="none" stroke="#08415F" stroke-width="2" stroke-linecap="round" stroke-linejoin="round" stroke-dasharray="0 0"/><path d="M 890,210 L 884.25,218.69565217391303 L 895.75,218.69565217391303 Z" fill="rgb(8,65,95)" stroke="#08415F" stroke-width="2" stroke-linecap="round" stroke-linejoin="round"/></g></g><g id="ma4oIV7AQmT"><g transform="translate(810 500) rotate(180)"><path d="M 150.00000000000006,-27.5 L 130.00000000000006,0 L 130.00000000000006,-13 L 35,-13 L 35,-42 L 130.00000000000006,-42 L 130.00000000000006,-55 L 150.00000000000006,-27.5 Z M 0,-13 L 5,-13 L 5,-42 L 0,-42 Z M 15,-13 L 25,-13 L 25,-42 L 15,-42 Z" fill="rgb(8,65,95)" stroke="#08415F" stroke-width="2" stroke-linecap="round" stroke-linejoin="round" stroke-dasharray="0 0"/></g></g><g id="aB41Sb7CMXJ"><g transform="translate(650 150.00000000000003) rotate(-7.016709298534876e-15)"><path d="M 160.00000000000003,27.5 L 140.00000000000003,0 L 140.00000000000003,13 L 35,13 L 35,42 L 140.00000000000003,42 L 140.00000000000003,55 L 160.00000000000003,27.5 Z M 0,13 L 5,13 L 5,42 L 0,42 Z M 15,13 L 25,13 L 25,42 L 15,42 Z" fill="rgb(8,65,95)" stroke="#08415F" stroke-width="2" stroke-linecap="round" stroke-linejoin="round" stroke-dasharray="0 0"/></g></g><g id="ThdaYF3BGdO"><g transform="translate(830 530)"><rect x="0" y="0" width="120" height="60" fill="rgb(9,149,206)" stroke="#0995CE" stroke-width="2" stroke-linecap="round" stroke-linejoin="round" stroke-dasharray="0 0"/></g><g transform="translate(853.5, 541.5) rotate(0, 36.5, 18.5)" width="73" height="37"><text text-decoration="none" x="1" fill="#ffffff" font-size="10pt" font-family="lt_regular"  y="14">Maintance&#160;</text><text text-decoration="none" x="63" fill="#ffffff" font-size="10pt" font-family="lt_regular"  y="14">&#x26;&#160;</text><text text-decoration="none" x="12.5" fill="#ffffff" font-size="10pt" font-family="lt_regular"  y="33">Updates</text><text text-decoration="none" x="60.5" fill="#4b4b4b" font-size="10pt" font-family="noto_regular"  y="33"></text></g></g><g id="tmKqu6SGGhj"><g><path d="M 1100,580 L 1100,599.5 Q 1100,609.5 1090.000295844859,609.5769208011934 L 1035,610 L 979.999704155141,609.5769208011934 Q 979.4997189473839,609.5730747611337 970,610 Q 960,610 960,610 L 930,610 L 900,610 Q 890,610 890,600 L 890,590" fill="none" stroke="#08415F" stroke-width="2" stroke-linecap="round" stroke-linejoin="round" stroke-dasharray="0 0"/><path d="M 890,590 L 884.25,598.695652173913 L 895.75,598.695652173913 Z" fill="rgb(8,65,95)" stroke="#08415F" stroke-width="2" stroke-linecap="round" stroke-linejoin="round"/></g></g><g id="qOK9KMRm5m6"><g transform="translate(500.0000000000001 120)"><rect x="0" y="0" width="149.99999999999997" height="149.99999999999997" fill="rgba(255,255,255,0.01)" stroke="rgba(255,255,255,0.01)"/><path d="M 0,0 L 149.99999999999997,0 L 149.99999999999997,149.99999999999997 L 0,149.99999999999997 L 0,0 Z" fill="rgba(255,255,255,0.01)" stroke="rgba(255,255,255,0.01)"/><path d="M 46.87499999999999,53.12499999999999 C 46.87499999999999,60.34187836487032 54.68749999999999,64.85242734291427 60.93749999999999,61.243988160479105 C 63.83813509461096,59.569305707784586 65.62499999999999,56.474364905389024 65.62499999999999,53.12499999999999 C 65.62499999999999,45.90812163512967 57.81249999999999,41.397572657085725 51.56249999999999,45.00601183952088 C 48.661864905389024,46.68069429221539 46.87499999999999,49.775635094610955 46.87499999999999,53.12499999999999" fill="rgba(77,116,145,0.3)" stroke="rgba(255,255,255,0.01)"/><path d="M 27.124999999999996,106.24999999999999 L 85.37499999999999,106.24999999999999 C 80.12499999999999,102.625 67.43749999999999,98.43749999999999 56.24999999999999,98.43749999999999 C 45.0625,98.43749999999999 32.37499999999999,102.625 27.124999999999996,106.24999999999999 Z" fill="rgba(77,116,145,0.3)" stroke="rgba(255,255,255,0.01)"/><path d="M 56.24999999999999,74.99999999999999 C 68.31249999999999,74.99999999999999 78.12499999999999,65.18749999999999 78.12499999999999,53.12499999999999 C 78.12499999999999,41.06249999999999 68.31249999999999,31.249999999999996 56.24999999999999,31.249999999999996 C 44.18749999999999,31.249999999999996 34.37499999999999,41.06249999999999 34.37499999999999,53.12499999999999 C 34.37499999999999,65.18749999999999 44.18749999999999,74.99999999999999 56.24999999999999,74.99999999999999 Z M 56.24999999999999,43.74999999999999 C 61.43749999999999,43.74999999999999 65.62499999999999,47.93749999999999 65.62499999999999,53.12499999999999 C 65.62499999999999,58.31249999999999 61.43749999999999,62.49999999999999 56.24999999999999,62.49999999999999 C 51.06249999999999,62.49999999999999 46.87499999999999,58.31249999999999 46.87499999999999,53.12499999999999 C 46.87499999999999,47.93749999999999 51.06249999999999,43.74999999999999 56.24999999999999,43.74999999999999 Z M 56.24999999999999,85.93749999999999 C 41.62499999999999,85.93749999999999 12.499999999999998,93.24999999999999 12.499999999999998,107.81249999999999 L 12.499999999999998,118.74999999999999 L 99.99999999999999,118.74999999999999 L 99.99999999999999,107.81249999999999 C 99.99999999999999,93.24999999999999 70.87499999999999,85.93749999999999 56.24999999999999,85.93749999999999 Z M 27.124999999999996,106.24999999999999 C 32.37499999999999,102.625 45.06249999999999,98.43749999999999 56.24999999999999,98.43749999999999 C 67.43749999999999,98.43749999999999 80.12499999999999,102.625 85.37499999999999,106.24999999999999 L 27.124999999999996,106.24999999999999 Z M 100.24999999999999,86.31249999999999 C 107.49999999999999,91.56249999999999 112.49999999999999,98.56249999999999 112.49999999999999,107.81249999999999 L 112.49999999999999,118.74999999999999 L 137.49999999999997,118.74999999999999 L 137.49999999999997,107.81249999999999 C 137.49999999999997,95.18749999999999 115.62499999999999,87.99999999999999 100.24999999999999,86.31249999999999 Z M 93.74999999999999,74.99999999999999 C 105.81249999999999,74.99999999999999 115.62499999999999,65.18749999999999 115.62499999999999,53.12499999999999 C 115.62499999999999,41.06249999999999 105.81249999999999,31.249999999999996 93.74999999999999,31.249999999999996 C 90.37499999999999,31.249999999999996 87.25,32.06249999999999 84.37499999999999,33.43749999999999 C 88.31249999999999,38.99999999999999 90.62499999999999,45.81249999999999 90.62499999999999,53.12499999999999 C 90.62499999999999,60.43749999999999 88.31249999999999,67.24999999999999 84.37499999999999,72.81249999999999 C 87.25,74.1875 90.37499999999999,74.99999999999999 93.74999999999999,74.99999999999999 Z" fill="rgb(16,81,115)" stroke="rgba(255,255,255,0.01)"/></g><g transform="translate(558.5000000000001, 241) rotate(0, 16.5, 19)" width="33" height="19"><text text-decoration="none" x="0" fill="#4b4b4b" font-size="10pt" font-family="lt_regular"  y="15">Users</text><text text-decoration="none" x="34" fill="#4b4b4b" font-size="10pt" font-family="noto_regular"  y="15"></text></g></g><g id="pU8wWptt2FF"><g transform="translate(500 450)"><rect x="0" y="0" width="139.99999999999994" height="139.99999999999994" fill="rgba(255,255,255,0.01)" stroke="rgba(255,255,255,0.01)"/><path d="M 0,0 L 139.99999999999994,0 L 139.99999999999994,139.99999999999994 L 0,139.99999999999994 L 0,0 Z" fill="rgba(255,255,255,0.01)" stroke="rgba(255,255,255,0.01)"/><path d="M 23.333333333333325,29.166666666666657 L 116.66666666666663,29.166666666666657 L 116.66666666666663,93.3333333333333 L 23.333333333333325,93.3333333333333 Z" fill="rgb(158,181,198)" stroke="rgba(255,255,255,0.01)"/><path d="M 116.66666666666663,104.99999999999996 C 123.0833333333333,104.99999999999996 128.27499999999995,99.74999999999997 128.27499999999995,93.3333333333333 L 128.3333333333333,29.166666666666657 C 128.3333333333333,22.749999999999993 123.0833333333333,17.499999999999993 116.66666666666663,17.499999999999993 L 23.333333333333325,17.499999999999993 C 16.91666666666666,17.499999999999993 11.666666666666663,22.749999999999993 11.666666666666663,29.166666666666657 L 11.666666666666663,93.3333333333333 C 11.666666666666663,99.74999999999997 16.91666666666666,104.99999999999996 23.333333333333325,104.99999999999996 L 0,104.99999999999996 C 0,111.41666666666663 5.249999999999998,116.66666666666663 11.666666666666663,116.66666666666663 L 128.3333333333333,116.66666666666663 C 134.74999999999997,116.66666666666663 139.99999999999994,111.41666666666663 139.99999999999994,104.99999999999996 L 116.66666666666663,104.99999999999996 Z M 23.333333333333325,29.166666666666657 L 116.66666666666663,29.166666666666657 L 116.66666666666663,93.3333333333333 L 23.333333333333325,93.3333333333333 L 23.333333333333325,29.166666666666657 Z M 69.99999999999997,110.8333333333333 C 66.79166666666664,110.8333333333333 64.16666666666664,108.2083333333333 64.16666666666664,104.99999999999996 C 64.16666666666664,101.79166666666663 66.79166666666664,99.16666666666663 69.99999999999997,99.16666666666663 C 73.20833333333331,99.16666666666663 75.8333333333333,101.79166666666663 75.8333333333333,104.99999999999996 C 75.8333333333333,108.2083333333333 73.20833333333331,110.8333333333333 69.99999999999997,110.8333333333333 Z" fill="rgb(16,81,115)" stroke="rgba(255,255,255,0.01)"/></g><g transform="translate(525, 421) rotate(0, 45, 19)" width="90" height="19"><text text-decoration="none" x="0" fill="rgb(75, 75, 75)" font-size="10pt" font-family="lt_regular"  y="15">IT&#160;</text><text text-decoration="none" x="15" fill="rgb(75, 75, 75)" font-size="10pt" font-family="lt_regular"  y="15">Infastructure</text><text text-decoration="none" x="90" fill="#4b4b4b" font-size="10pt" font-family="noto_regular"  y="15"></text></g></g><g id="xTaf1OorTse"><g transform="translate(460 250)"><rect x="0" y="0" width="230.0000000000001" height="217.22222222222226" fill="rgba(255,255,255,0.01)" stroke="rgba(255,255,255,0.01)"/><path d="M 0,0 L 230.0000000000001,0 L 230.0000000000001,217.22222222222226 L 0,217.22222222222226 Z" fill="rgba(255,255,255,0.01)" stroke="rgba(255,255,255,0.01)"/><path d="M 186.87500000000009,85.9837962962963 C 177.00416666666672,85.9837962962963 168.66666666666674,91.59537037037038 164.92916666666676,99.5601851851852 L 136.9458333333334,99.5601851851852 C 133.2083333333334,91.59537037037038 124.8708333333334,85.9837962962963 115.00000000000006,85.9837962962963 C 105.1291666666667,85.9837962962963 96.7916666666667,91.59537037037038 93.05416666666672,99.5601851851852 L 65.07083333333337,99.5601851851852 C 61.333333333333364,91.59537037037038 52.99583333333336,85.9837962962963 43.12500000000002,85.9837962962963 C 24.681866400886964,85.9837962962963 13.154907901441309,104.83989197530866 22.376474700997832,119.92476851851853 C 26.65621874677271,126.92568408637588 34.56551190845026,131.23842592592595 43.12500000000002,131.23842592592595 C 52.99583333333336,131.23842592592595 61.333333333333364,125.62685185185188 65.07083333333337,117.66203703703705 L 93.05416666666672,117.66203703703705 C 96.79166666666673,125.62685185185188 105.12916666666672,131.23842592592595 115.00000000000006,131.23842592592595 C 124.87083333333338,131.23842592592595 133.2083333333334,125.62685185185188 136.94583333333338,117.66203703703705 L 164.92916666666676,117.66203703703705 C 168.66666666666674,125.62685185185188 177.00416666666678,131.23842592592595 186.87500000000009,131.23842592592595 C 205.31813359911314,131.23842592592595 216.84509209855875,112.3823302469136 207.62352529900227,97.29745370370372 C 203.34378125322738,90.29653813584638 195.43448809154984,85.9837962962963 186.87500000000009,85.9837962962963 Z" fill="rgba(16,81,115,0.19)" stroke="rgba(255,255,255,0.01)"/></g><g transform="translate(575, 477.2222222222223) rotate(0, 0, 0)" width="0" height="36"><text text-decoration="none" x="0" fill="#4b4b4b" font-size="10pt" font-family="noto_regular"  y="15"></text></g></g><g id="t7oXDdMe3Ms"><g transform="translate(1020 30)"><rect x="0" y="0" width="250" height="64" fill="rgba(255,255,255,0.01)" stroke="rgba(255,255,255,0.01)"/></g><g transform="translate(1036.5, 40) rotate(0, 108.5, 0)" width="217" height="44"><text text-decoration="none" x="39" fill="rgb(16, 81, 115)" font-weight="bold" font-size="24pt" font-family="lt_regular"  y="35">IT&#160;</text><text text-decoration="none" x="75" fill="rgb(16, 81, 115)" font-weight="bold" font-size="24pt" font-family="lt_regular"  y="35">Service&#160;</text><text text-decoration="none" x="73" fill="rgb(16, 81, 115)" font-weight="bold" font-size="24pt" font-family="lt_regular"  y="79">Desk</text><text text-decoration="none" x="144" fill="#4b4b4b" font-size="10pt" font-family="noto_regular"  y="79"></text></g></g><g id="Ts8gSNjKIsU"><g transform="translate(450 30)"><rect x="0" y="0" width="250" height="64" fill="rgba(255,255,255,0.01)" stroke="rgba(255,255,255,0.01)"/></g><g transform="translate(533.5, 40) rotate(0, 41.5, 0)" width="83" height="44"><text text-decoration="none" x="0" fill="rgb(16, 81, 115)" font-weight="bold" font-size="24pt" font-family="lt_regular"  y="35">Client</text><text text-decoration="none" x="83" fill="#4b4b4b" font-size="10pt" font-family="noto_regular"  y="35"></text></g></g></svg>